<?xml version="1.0" standalone="no"?>
<!DOCTYPE svg PUBLIC "-//W3C//DTD SVG 20010904//EN"
 "http://www.w3.org/TR/2001/REC-SVG-20010904/DTD/svg10.dtd">
<svg version="1.0" xmlns="http://www.w3.org/2000/svg"
 width="256.000000pt" height="197.000000pt" viewBox="0 0 256.000000 197.000000"
 preserveAspectRatio="xMidYMid meet">
<metadata>
Created by potrace 1.15, written by Peter Selinger 2001-2017
</metadata>
<g transform="translate(0.000000,197.000000) scale(0.100000,-0.100000)"
fill="#000000" stroke="none">
<path d="M873 1539 c-36 -23 -73 -94 -73 -141 0 -44 30 -90 76 -119 32 -19 54
-24 133 -26 51 -1 96 -5 99 -8 3 -3 12 -5 21 -4 12 0 10 3 -4 8 -18 7 -18 9
10 23 17 9 39 25 49 37 24 27 36 27 36 1 0 -29 -26 -76 -45 -84 -25 -9 -63 -7
-70 4 -13 21 -23 8 -30 -40 -6 -47 -10 -52 -74 -99 -100 -75 -171 -153 -171
-190 0 -43 59 -92 140 -116 14 -4 33 -17 44 -29 l18 -21 -14 25 c-9 15 -38 33
-73 47 -74 29 -105 57 -105 97 0 25 13 43 68 96 38 36 89 80 115 98 l47 33 0
-24 c0 -17 -12 -32 -40 -51 -22 -14 -40 -29 -40 -31 0 -8 38 13 45 25 17 27
22 2 18 -82 -5 -79 -8 -95 -26 -110 -19 -15 -25 -15 -56 -2 -43 18 -71 42 -71
61 0 7 19 35 42 61 l42 47 -47 -45 c-28 -27 -47 -53 -47 -66 0 -26 37 -58 86
-74 30 -10 38 -9 55 6 19 17 19 16 19 -49 0 -47 -4 -67 -12 -67 -10 0 -10 -2
-1 -8 6 -4 13 -21 16 -37 2 -17 5 27 6 96 1 124 27 438 36 448 3 2 5 -8 5 -22
0 -15 4 -27 10 -27 5 0 7 7 4 15 -5 12 2 15 28 15 48 0 82 37 83 90 0 29 4 40
15 40 13 0 13 1 0 10 -23 15 -37 12 -43 -9 -2 -11 -29 -33 -58 -51 -51 -29
-59 -31 -134 -27 -126 6 -195 52 -195 132 0 45 40 116 79 142 19 13 30 23 25
23 -5 0 -23 -9 -41 -21z"/>
</g>
</svg>
